<?xml version="1.0" encoding="utf-8"?>
<!-- Generator: Adobe Illustrator 24.1.3, SVG Export Plug-In . SVG Version: 6.00 Build 0)  -->
<svg version="1.1" id="Capa_1" xmlns="http://www.w3.org/2000/svg" xmlns:xlink="http://www.w3.org/1999/xlink" x="0px" y="0px"
	 viewBox="0 0 186.8 186.8" style="enable-background:new 0 0 186.8 186.8;" xml:space="preserve">
<style type="text/css">
	.st0{fill:#FFFFFF;}
</style>
<g>
	<path class="st0" d="M170.7,16.2c-9.5-9.5-22-14.7-35.4-14.7H51.6C24,1.5,1.5,24,1.5,51.6v83.7c0,27.6,22.5,50.1,50.1,50.1h83.7
		c27.6,0,50.1-22.5,50.1-50.1V51.6C185.3,38.2,180.1,25.6,170.7,16.2z M135.3,171.8H51.6c-9.7,0-18.9-3.8-25.8-10.7
		S15.1,145,15.1,135.3V51.6c0-20.1,16.4-36.5,36.5-36.5h83.7c20.1,0,36.5,16.4,36.5,36.5v83.7C171.8,155.4,155.4,171.8,135.3,171.8z
		"/>
	<path class="st0" d="M71.2,59.6H40.5v71.5h30.8c11.5,0,20.9-9.4,20.9-20.9c0-5.6-2.3-11-6.3-14.9c4-3.9,6.3-9.3,6.3-14.9
		C92.1,68.9,82.7,59.6,71.2,59.6z M71.2,119.1H52.4v-17.9h18.9c4.9,0,8.9,4,8.9,8.9S76.2,119.1,71.2,119.1z M71.2,89.4H52.4V71.5
		h18.9c4.9,0,8.9,4,8.9,8.9S76.2,89.4,71.2,89.4z"/>
	<path class="st0" d="M119.8,79.4C105.6,79.4,94,91,94,105.2s11.6,25.8,25.8,25.8c9.2,0,17.8-4.9,22.4-12.9l0.5-0.9l-10.3-6
		l-0.5,0.9c-2.5,4.3-7.1,6.9-12,6.9c-5.4,0-10.3-3.1-12.5-7.9h38.4v-6C145.6,91,134.1,79.4,119.8,79.4z M107.3,99.3
		c2.3-4.8,7.2-7.9,12.5-7.9c5.4,0,10.3,3.1,12.5,7.9H107.3z"/>
	<rect x="99" y="59.6" class="st0" width="41.7" height="11.9"/>
</g>
</svg>
