<?xml version="1.0" encoding="utf-8"?>
<!-- Generator: Adobe Illustrator 24.1.3, SVG Export Plug-In . SVG Version: 6.00 Build 0)  -->
<svg version="1.1" id="Capa_1" xmlns="http://www.w3.org/2000/svg" xmlns:xlink="http://www.w3.org/1999/xlink" x="0px" y="0px"
	 viewBox="0 0 186.8 186.8" style="enable-background:new 0 0 186.8 186.8;" xml:space="preserve">
<style type="text/css">
	.st0{fill:#FFFFFF;}
</style>
<g>
	<path class="st0" d="M93.4,31C59,31,31,59,31,93.4s28,62.4,62.4,62.4s62.4-28,62.4-62.4S127.8,31,93.4,31z M93.4,42.9
		c11.5,0,22.6,3.9,31.6,11.1c-6.8,6-15,11.1-24.4,15.2c-6.1-11.2-12-19.8-16.2-25.5C87.4,43.1,90.4,42.9,93.4,42.9z M72.4,47.5
		c3,3.9,9.7,13.1,16.8,25.9c-17.9,5.7-35.1,6.9-44.6,7.1C48.4,65.9,58.7,53.7,72.4,47.5z M54.1,125.1c-7.3-9-11.2-20.2-11.2-31.7
		c0-0.4,0-0.7,0-1.1c6,0,17.4-0.5,30.8-2.9c7.4-1.3,14.5-3.2,21.2-5.4c1.6,3.1,3,6.3,4.4,9.4c-8.1,2.7-16,6.7-23.3,11.7
		C65.9,112.1,58.6,119.7,54.1,125.1z M93.4,144c-11.3,0-21.9-3.6-30.8-10.5c3.6-4.4,10.5-12,20.3-18.7c6.7-4.6,13.7-8.1,20.8-10.4
		c4.5,11.9,7.8,23.8,9.8,35.4C107.2,142.6,100.4,144,93.4,144z M124.5,133.3c-2.1-10.5-5.1-21.1-9-31.7c8.9-1.4,18.2-1,27.7,1
		C140.9,114.8,134.3,125.6,124.5,133.3z M126.7,88.9c-5.3,0-10.5,0.5-15.7,1.4c-1.5-3.6-3.2-7.2-4.9-10.7
		c10.5-4.6,19.6-10.4,27.3-17.3c6.4,8.2,10,17.9,10.6,28.2C138.1,89.5,132.4,88.9,126.7,88.9z"/>
	<path class="st0" d="M170.7,16.2c-9.5-9.5-22-14.7-35.4-14.7H51.6C24,1.5,1.5,24,1.5,51.6v83.7c0,27.6,22.5,50.1,50.1,50.1h83.7
		c27.6,0,50.1-22.5,50.1-50.1V51.6C185.3,38.2,180.1,25.6,170.7,16.2z M135.3,171.8H51.6c-9.7,0-18.9-3.8-25.8-10.7
		S15.1,145,15.1,135.3V51.6c0-20.1,16.4-36.5,36.5-36.5h83.7c20.1,0,36.5,16.4,36.5,36.5v83.7C171.8,155.4,155.4,171.8,135.3,171.8z
		"/>
</g>
</svg>
