<?xml version="1.0" encoding="utf-8"?>
<!-- Generator: Adobe Illustrator 24.1.3, SVG Export Plug-In . SVG Version: 6.00 Build 0)  -->
<svg version="1.1" id="Capa_1" xmlns="http://www.w3.org/2000/svg" xmlns:xlink="http://www.w3.org/1999/xlink" x="0px" y="0px"
	 viewBox="0 0 186.8 186.8" style="enable-background:new 0 0 186.8 186.8;" xml:space="preserve">
<style type="text/css">
	.st0{fill:#FFFFFF;}
</style>
<g>
	<path class="st0" d="M93.4,45.3c-26.5,0-48.1,21.6-48.1,48.1s21.6,48.1,48.1,48.1s48.1-21.6,48.1-48.1
		C141.6,66.9,120,45.3,93.4,45.3z M93.4,125c-17.4,0-31.6-14.2-31.6-31.6C61.9,76,76,61.9,93.4,61.9S125,76.1,125,93.5
		C125,110.8,110.8,125,93.4,125z"/>
	<path class="st0" d="M143.6,31.2c-3.2,0-6.3,1.3-8.6,3.6s-3.6,5.4-3.6,8.6s1.3,6.3,3.6,8.6s5.4,3.6,8.6,3.6c3.2,0,6.3-1.3,8.6-3.6
		s3.6-5.4,3.6-8.6c0-3.2-1.3-6.3-3.6-8.6C149.9,32.5,146.8,31.2,143.6,31.2z"/>
	<path class="st0" d="M170.7,16.2c-9.5-9.5-22-14.7-35.4-14.7H51.6C24,1.5,1.5,24,1.5,51.6v83.7c0,27.6,22.5,50.1,50.1,50.1h83.7
		c27.6,0,50.1-22.5,50.1-50.1V51.6C185.3,38.2,180.1,25.6,170.7,16.2z M135.3,171.8H51.6c-9.7,0-18.9-3.8-25.8-10.7
		S15.1,145,15.1,135.3V51.6c0-20.1,16.4-36.5,36.5-36.5h83.7c20.1,0,36.5,16.4,36.5,36.5v83.7C171.8,155.4,155.4,171.8,135.3,171.8z
		"/>
</g>
</svg>
