<?xml version="1.0" encoding="utf-8"?>
<!-- Generator: Adobe Illustrator 24.1.3, SVG Export Plug-In . SVG Version: 6.00 Build 0)  -->
<svg version="1.1" id="Capa_1" xmlns="http://www.w3.org/2000/svg" xmlns:xlink="http://www.w3.org/1999/xlink" x="0px" y="0px"
	 viewBox="0 0 186.8 186.8" style="enable-background:new 0 0 186.8 186.8;" xml:space="preserve">
<style type="text/css">
	.st0{fill:#FFFFFF;}
</style>
<g>
	<path class="st0" d="M170.7,16.2c-9.5-9.5-22-14.7-35.4-14.7H51.6C24,1.5,1.5,24,1.5,51.6v83.7c0,27.6,22.5,50.1,50.1,50.1h83.7
		c27.6,0,50.1-22.5,50.1-50.1V51.6C185.3,38.2,180.1,25.6,170.7,16.2z M135.3,171.8H51.6c-9.7,0-18.9-3.8-25.8-10.7
		S15.1,145,15.1,135.3V51.6c0-20.1,16.4-36.5,36.5-36.5h83.7c20.1,0,36.5,16.4,36.5,36.5v83.7C171.8,155.4,155.4,171.8,135.3,171.8z
		"/>
	<rect x="52.5" y="74.8" class="st0" width="16.7" height="56.2"/>
	<path class="st0" d="M114.9,73.8c-8.7,0-15,4.4-17.1,8.5l-0.1,0.3v-0.5v-7.3H81.4V131h16.2v-27.9c0-10.2,3.8-15.2,11.6-15.2
		c9.9,0,9.9,9.8,9.9,15.6v27.4h16.5v-31C135.6,84.3,132.1,73.8,114.9,73.8z"/>
	<path class="st0" d="M61.1,46.2c-5.5,0-9.9,4.4-9.9,9.9s4.4,9.9,9.9,9.9c5.4,0,9.9-4.4,9.9-9.9S66.6,46.2,61.1,46.2z"/>
</g>
</svg>
