<?xml version="1.0" encoding="utf-8"?>
<!-- Generator: Adobe Illustrator 24.1.3, SVG Export Plug-In . SVG Version: 6.00 Build 0)  -->
<svg version="1.1" id="Layer_1" xmlns="http://www.w3.org/2000/svg" xmlns:xlink="http://www.w3.org/1999/xlink" x="0px" y="0px"
	 viewBox="0 0 151.3 20.8" style="enable-background:new 0 0 151.3 20.8;" xml:space="preserve">
<style type="text/css">
	.st0{fill:#CB9C53;}
	.st1{fill:#FFFFFF;}
</style>
<g>
	<polygon class="st0" points="13.8,6.9 13.8,13.8 9.2,13.8 9.2,16.1 13.8,16.1 16.1,16.1 16.1,13.8 16.1,6.9 16.1,4.6 13.8,4.6 
		2.3,4.6 0,4.6 0,6.9 0,20.8 2.3,20.8 2.3,6.9 	"/>
	<polygon class="st0" points="18.5,0 0,0 0,2.3 18.5,2.3 18.5,18.5 6.9,18.5 6.9,11.5 11.5,11.5 11.5,9.2 6.9,9.2 4.6,9.2 4.6,11.5 
		4.6,18.5 4.6,20.8 6.9,20.8 18.5,20.8 20.8,20.8 20.8,18.5 20.8,2.3 20.8,0 	"/>
</g>
<g>
	<g>
		<g>
			<path class="st1" d="M34.4,5.7c0.8,0.7,1.2,1.6,1.2,2.9c0,1.2-0.4,2.2-1.2,2.8c-0.8,0.7-2,1-3.4,1h-3.3v3.8h-0.8V4.6H31
				C32.5,4.6,33.6,5,34.4,5.7z M33.9,10.8c0.6-0.5,1-1.3,1-2.3s-0.3-1.8-1-2.3c-0.6-0.5-1.6-0.8-2.8-0.8h-3.3v6.2H31
				C32.3,11.6,33.2,11.4,33.9,10.8z"/>
			<path class="st1" d="M52.2,14.9C51.4,14,51,12.8,51,11.2V4.6h0.8v6.5c0,1.4,0.3,2.5,1,3.2c0.6,0.7,1.6,1.1,2.8,1.1
				s2.2-0.4,2.8-1.1c0.6-0.7,1-1.8,1-3.2V4.6h0.8v6.6c0,1.6-0.4,2.9-1.2,3.7s-2,1.3-3.4,1.3C54.2,16.2,53,15.7,52.2,14.9z"/>
			<path class="st1" d="M67.5,12.2v4h-0.8v-4l-4.6-7.6H63l4.2,6.8l4.2-6.8h0.9L67.5,12.2z"/>
			<path class="st1" d="M80.3,12.9h-6.7l-1.5,3.2h-0.9l5.3-11.5h0.8l5.3,11.5h-0.9L80.3,12.9z M80,12.2l-3-6.7l-3,6.7H80z"/>
			<path class="st1" d="M94,4.6v11.5h-0.7l-7.9-10v10h-0.8V4.6h0.7l7.8,10v-10C93.1,4.6,94,4.6,94,4.6z"/>
		</g>
	</g>
	<g>
		<path class="st1" d="M110.7,12.9H104l-1.5,3.2h-0.9l5.3-11.5h0.8l5.3,11.5h-0.9L110.7,12.9z M110.4,12.2l-3-6.7l-3,6.7H110.4z"/>
		<path class="st1" d="M116.3,15.7c-0.5-0.3-1-0.7-1.3-1.2l0.5-0.6c0.3,0.5,0.7,0.8,1.1,1.1c0.4,0.2,0.9,0.4,1.4,0.4
			c0.8,0,1.3-0.2,1.7-0.7c0.4-0.4,0.6-1.1,0.6-2.1V5.4H116V4.6h5.1v8.1c0,1.2-0.3,2-0.8,2.6s-1.3,0.9-2.3,0.9
			C117.4,16.2,116.8,16,116.3,15.7z"/>
		<path class="st1" d="M132.1,12.9h-6.7l-1.5,3.2H123l5.3-11.5h0.8l5.3,11.5h-0.9L132.1,12.9z M131.8,12.2l-3-6.7l-3,6.7H131.8z"/>
		<path class="st1" d="M136.4,4.6h0.8v10.8h6.6v0.8h-7.5L136.4,4.6L136.4,4.6z"/>
		<path class="st1" d="M145.8,4.6h0.8v11.5h-0.8V4.6z"/>
	</g>
	<path class="st1" d="M43.3,5.4c2.8,0,5,2.3,5,5s-2.3,5-5,5c-2.8,0-5-2.3-5-5S40.6,5.4,43.3,5.4 M43.3,4.6c-3.2,0-5.8,2.6-5.8,5.8
		s2.6,5.8,5.8,5.8s5.8-2.6,5.8-5.8S46.5,4.6,43.3,4.6L43.3,4.6z"/>
</g>
</svg>
